<svg width="64" height="64" viewBox="0 0 64 64" fill="none" xmlns="http://www.w3.org/2000/svg">
<g filter="url(#filter0_d_3507_4241)">
<path d="M57 30C57 16.1929 45.8071 5 32 5C18.1929 5 7 16.1929 7 30C7 43.8071 18.1929 55 32 55C45.8071 55 57 43.8071 57 30Z" fill="url(#paint0_linear_3507_4241)"/>
<path d="M57.5 30C57.5 15.9167 46.0833 4.5 32 4.5C17.9167 4.5 6.5 15.9167 6.5 30C6.5 44.0833 17.9167 55.5 32 55.5C46.0833 55.5 57.5 44.0833 57.5 30Z" stroke="white"/>
</g>
<path fill-rule="evenodd" clip-rule="evenodd" d="M43.4033 23C43.4033 21.3431 42.0602 20 40.4033 20H25.4957C20.9037 20 16.7522 22.7327 14.9366 26.9504C13.8137 29.5587 13.6965 32.4909 14.6061 35.1802C16.1864 39.8523 20.5703 43 25.5041 43H37.9033C38.4556 43 38.9033 42.5526 38.9033 42.0003C38.9033 41.3351 38.9033 40.5277 38.9033 40C38.9033 38.9983 38.9033 38.4767 38.9033 37.9999C38.9033 37.4476 38.4585 37 37.9062 37C34.5925 37 25.5041 37 25.5041 37C23.1448 37 21.0463 35.4942 20.2898 33.2578C19.8548 31.9716 19.9111 30.5693 20.4476 29.3228C21.3157 27.3064 23.3004 26 25.4957 26H40.4033C42.0602 26 43.4033 24.6569 43.4033 23Z" fill="white"/>
<path d="M47.0991 23L36.4033 31.491L36.4033 14.509L47.0991 23Z" fill="white" stroke="white"/>
<defs>
<filter id="filter0_d_3507_4241" x="0" y="0" width="64" height="64" filterUnits="userSpaceOnUse" color-interpolation-filters="sRGB">
<feFlood flood-opacity="0" result="BackgroundImageFix"/>
<feColorMatrix in="SourceAlpha" type="matrix" values="0 0 0 0 0 0 0 0 0 0 0 0 0 0 0 0 0 0 127 0" result="hardAlpha"/>
<feOffset dy="2"/>
<feGaussianBlur stdDeviation="3"/>
<feComposite in2="hardAlpha" operator="out"/>
<feColorMatrix type="matrix" values="0 0 0 0 0 0 0 0 0 0 0 0 0 0 0 0 0 0 0.7 0"/>
<feBlend mode="normal" in2="BackgroundImageFix" result="effect1_dropShadow_3507_4241"/>
<feBlend mode="normal" in="SourceGraphic" in2="effect1_dropShadow_3507_4241" result="shape"/>
</filter>
<linearGradient id="paint0_linear_3507_4241" x1="32" y1="5" x2="32" y2="55" gradientUnits="userSpaceOnUse">
<stop offset="0.1" stop-color="#B5B5C1"/>
<stop offset="0.9" stop-color="#595963"/>
</linearGradient>
</defs>
</svg>
