<svg width="64" height="64" viewBox="0 0 64 64" fill="none" xmlns="http://www.w3.org/2000/svg">
<g filter="url(#filter0_d_3507_4249)">
<path d="M57 30C57 16.1929 45.8071 5 32 5C18.1929 5 7 16.1929 7 30C7 43.8071 18.1929 55 32 55C45.8071 55 57 43.8071 57 30Z" fill="url(#paint0_linear_3507_4249)"/>
<path fill-rule="evenodd" clip-rule="evenodd" d="M45.75 25.76V25.78V25.79L43.73 35.89C43.71 35.95 43.7 36.01 43.69 36.07L43.69 36.07L43.67 36.15C42.45 41.76 37.46 45.96 31.48 45.96C24.59 45.96 19 40.37 19 33.48C19 30.34 20.17 27.47 22.08 25.27H22.07L22.25 25.08L22.25 25.0799C22.39 24.93 22.53 24.78 22.68 24.63L33.62 13.17C34.35 12.45 35.35 12 36.45 12C38.65 12 40.44 13.78 40.44 15.99C40.44 16.66 40.28 17.28 39.99 17.83V17.85C39.91 18.01 39.81 18.16 39.71 18.31C39.34 18.79 39.12 19.39 39.12 20.05C39.12 21.64 40.41 22.93 42 22.93C42.19 22.93 42.37 22.91 42.54 22.88L42.43 22.92C42.7 22.83 42.99 22.77 43.29 22.77C44.67 22.77 45.79 23.89 45.79 25.27C45.79 25.43 45.78 25.58 45.75 25.73V25.76ZM35.1398 30.6798H35.5798C37.0898 30.6798 38.4498 31.8098 38.5298 33.3198C38.6098 34.9298 37.3298 36.2598 35.7398 36.2598H35.1398C34.6698 36.2598 34.2798 36.6398 34.2798 37.1198V37.7198C34.2798 39.3098 32.9498 40.5898 31.3398 40.5098C29.8298 40.4298 28.6998 39.0698 28.6998 37.5598V37.1198C28.6998 36.6498 28.3198 36.2598 27.8398 36.2598H27.2398C25.6498 36.2598 24.3698 34.9298 24.4498 33.3198C24.5298 31.8098 25.8898 30.6798 27.3998 30.6798H27.8398C28.3098 30.6798 28.6998 30.2998 28.6998 29.8198V29.2198C28.6998 27.6298 30.0298 26.3498 31.6398 26.4298C33.1498 26.5098 34.2798 27.8698 34.2798 29.3798V29.8198C34.2798 30.2898 34.6598 30.6798 35.1398 30.6798Z" fill="white"/>
<path d="M32 5C45.81 5 57 16.19 57 30C57 43.81 45.81 55 32 55C18.19 55 7 43.81 7 30C7 16.19 18.19 5 32 5ZM32 4C17.66 4 6 15.66 6 30C6 44.34 17.66 56 32 56C46.34 56 58 44.34 58 30C58 15.66 46.34 4 32 4Z" fill="white"/>
</g>
<defs>
<filter id="filter0_d_3507_4249" x="0" y="0" width="64" height="64" filterUnits="userSpaceOnUse" color-interpolation-filters="sRGB">
<feFlood flood-opacity="0" result="BackgroundImageFix"/>
<feColorMatrix in="SourceAlpha" type="matrix" values="0 0 0 0 0 0 0 0 0 0 0 0 0 0 0 0 0 0 127 0" result="hardAlpha"/>
<feOffset dy="2"/>
<feGaussianBlur stdDeviation="3"/>
<feComposite in2="hardAlpha" operator="out"/>
<feColorMatrix type="matrix" values="0 0 0 0 0 0 0 0 0 0 0 0 0 0 0 0 0 0 0.7 0"/>
<feBlend mode="normal" in2="BackgroundImageFix" result="effect1_dropShadow_3507_4249"/>
<feBlend mode="normal" in="SourceGraphic" in2="effect1_dropShadow_3507_4249" result="shape"/>
</filter>
<linearGradient id="paint0_linear_3507_4249" x1="32" y1="5" x2="32" y2="55" gradientUnits="userSpaceOnUse">
<stop offset="0.104167" stop-color="#B5B5C1"/>
<stop offset="0.916667" stop-color="#5A5A63"/>
</linearGradient>
</defs>
</svg>
